<!DOCTYPE svg PUBLIC "-//W3C//DTD SVG 1.1//EN" "http://www.w3.org/Graphics/SVG/1.1/DTD/svg11.dtd">
<svg xmlns="http://www.w3.org/2000/svg"
     viewBox="0 0 32 32"
     width="32" height="32" >
  <g transform="rotate(45 16 16)">
    <circle cx="16" cy="16" r="2"
            stroke="grey" stroke-width="1"
	    fill="grey" />
    <path stroke="grey" stroke-width="1"
	  fill="grey"
	  d="M1 15 L5 15 L5 13 L11 16 L5 19 L5 17 L1 17 Z"/>

    <path stroke="grey" stroke-width="1"
	  fill="grey"
	  d="M15 1 L15 5 L13 5 L16 11 L19 5 L17 5 L17 1 Z"/>

    <path stroke="grey" stroke-width="1"
	  fill="grey"
	  d="M31 15 L27 15 L27 13 L21 16 L27 19 L27 17 L31 17 Z"/>

    <path stroke="grey" stroke-width="1"
	  fill="grey"
	  d="M15 31 L15 27 L13 27 L16 21 L19 27 L17 27 L17 31 Z"/>
  </g>
</svg>
