<!DOCTYPE svg PUBLIC "-//W3C//DTD SVG 1.1//EN" "http://www.w3.org/Graphics/SVG/1.1/DTD/svg11.dtd">
<svg xmlns="http://www.w3.org/2000/svg"
     viewBox="0 0 32 32"
     width="32" height="32" >
  <circle cx="16" cy="16" r="2"
          stroke="black" stroke-width="1"
	  fill="black" />
  <path stroke="black" stroke-width="1"
	fill="black"
	d="M1 15 L8 15 L8 14 L11 16 L8 18 L8 17 L1 17 Z"/>

  <path stroke="black" stroke-width="1"
	fill="black"
	d="M15 1 L15 8 L14 8 L16 11 L18 8 L17 8 L17 1 Z"/>

  <path stroke="black" stroke-width="1"
	fill="black"
	d="M31 15 L24 15 L24 14 L21 16 L24 18 L24 17 L31 17 Z"/>

  <path stroke="black" stroke-width="1"
	fill="black"
	d="M15 31 L15 24 L14 24 L16 21 L18 24 L17 24 L17 31 Z"/>
</svg>
