<!DOCTYPE svg PUBLIC "-//W3C//DTD SVG 1.1//EN" "http://www.w3.org/Graphics/SVG/1.1/DTD/svg11.dtd">
<svg xmlns="http://www.w3.org/2000/svg"
     viewBox="0 0 32 32"
     width="32" height="32" >
  <g transform="rotate(45 16 16)">
    <circle cx="16" cy="16" r="2"
            stroke="grey" stroke-width="1"
	    fill="grey" />
    <path stroke="grey" stroke-width="1"
	  fill="grey"
	  d="M1 16 L7 13 L7 15 L11 15 L11 17 L7 17 L7 19 Z"/>

    <path stroke="grey" stroke-width="1"
	  fill="grey"
	  d="M16 1 L13 7 L15 7 L15 11 L17 11 L17 7 L19 7 Z"/>

    <path stroke="grey" stroke-width="1"
	  fill="grey"
	  d="M31 16 L25 13 L25 15 L21 15 L21 17 L25 17 L25 19 Z"/>

    <path stroke="grey" stroke-width="1"
	  fill="grey"
	  d="M16 31 L13 25 L15 25 L15 21 L17 21 L17 25 L19 25 Z"/>
  </g>
</svg>
